<mxfile host="app.diagrams.net" modified="2021-12-23T03:22:42.408Z" agent="5.0 (Windows)" etag="5GlOG8pffcbqPDtzpjOT" version="16.0.0" type="github">
  <diagram id="31b32b95-0358-9bc7-6ba0-a27c054ed1a7" name="Page-1">
    <mxGraphModel dx="2957" dy="2166" grid="1" gridSize="10" guides="1" tooltips="1" connect="1" arrows="1" fold="1" page="1" pageScale="1" pageWidth="827" pageHeight="1169" background="none" math="0" shadow="0">
      <root>
        <mxCell id="0" />
        <mxCell id="1" parent="0" />
        <mxCell id="1r9DKnqt9Mp9a_vY9GGe-222" value="" style="shape=ext;double=1;whiteSpace=wrap;html=1;aspect=fixed;fontSize=36;strokeColor=#FF0000;" vertex="1" parent="1">
          <mxGeometry x="1710" y="1130" width="660" height="660" as="geometry" />
        </mxCell>
        <object label="" id="2">
          <mxCell style="swimlane;shadow=0;strokeColor=#4277BB;fillColor=#ffffff;fontColor=#4277BB;align=right;startSize=0;collapsible=0;strokeWidth=3;" parent="1" vertex="1">
            <mxGeometry x="20" y="130" width="1160" height="890" as="geometry" />
          </mxCell>
        </object>
        <mxCell id="3" value="PUBLIC NETWORK" style="text;html=1;align=left;verticalAlign=top;fontColor=#4277BB;shadow=0;dashed=0;strokeColor=none;fillColor=none;labelBackgroundColor=none;fontStyle=1;fontSize=16;spacingLeft=5;" parent="2" vertex="1">
          <mxGeometry width="170" height="30" as="geometry" />
        </mxCell>
        <mxCell id="4" value="" style="line;strokeWidth=3;direction=south;html=1;shadow=0;labelBackgroundColor=none;fillColor=none;gradientColor=none;fontSize=12;fontColor=#4277BB;align=right;strokeColor=#4277BB;" parent="2" vertex="1">
          <mxGeometry x="205" width="10" height="250" as="geometry" />
        </mxCell>
        <mxCell id="5" value="PROVIDER CLOUD" style="text;html=1;align=left;verticalAlign=top;fontColor=#4277BB;shadow=0;dashed=0;strokeColor=none;fillColor=none;labelBackgroundColor=none;fontStyle=1;fontSize=16;spacingLeft=5;" parent="2" vertex="1">
          <mxGeometry x="210" width="180" height="35" as="geometry" />
        </mxCell>
        <mxCell id="6" value="Application component" style="rounded=0;html=1;shadow=0;labelBackgroundColor=none;strokeColor=none;strokeWidth=2;fillColor=#EBC01A;gradientColor=none;fontSize=12;fontColor=#4277BB;align=left;labelPosition=right;verticalLabelPosition=middle;verticalAlign=middle;spacingLeft=5;" parent="2" vertex="1">
          <mxGeometry x="10" y="730" width="20" height="10" as="geometry" />
        </mxCell>
        <mxCell id="7" value="Infrastructure services" style="rounded=0;html=1;shadow=0;labelBackgroundColor=none;strokeColor=none;strokeWidth=2;fillColor=#8DC642;gradientColor=none;fontSize=12;fontColor=#4277BB;align=left;labelPosition=right;verticalLabelPosition=middle;verticalAlign=middle;spacingLeft=5;" parent="2" vertex="1">
          <mxGeometry x="10" y="750" width="20" height="10" as="geometry" />
        </mxCell>
        <mxCell id="8" value="Management" style="rounded=0;html=1;shadow=0;labelBackgroundColor=none;strokeColor=none;strokeWidth=2;fillColor=#0DB39D;gradientColor=none;fontSize=12;fontColor=#4277BB;align=left;labelPosition=right;verticalLabelPosition=middle;verticalAlign=middle;spacingLeft=5;" parent="2" vertex="1">
          <mxGeometry x="10" y="770" width="20" height="10" as="geometry" />
        </mxCell>
        <mxCell id="9" value="Data store" style="rounded=0;html=1;shadow=0;labelBackgroundColor=none;strokeColor=none;strokeWidth=2;fillColor=#335D81;gradientColor=none;fontSize=12;fontColor=#4277BB;align=left;labelPosition=right;verticalLabelPosition=middle;verticalAlign=middle;spacingLeft=5;" parent="2" vertex="1">
          <mxGeometry x="10" y="790" width="20" height="10" as="geometry" />
        </mxCell>
        <mxCell id="10" value="Analytics" style="rounded=0;html=1;shadow=0;labelBackgroundColor=none;strokeColor=none;strokeWidth=2;fillColor=#744399;gradientColor=none;fontSize=12;fontColor=#4277BB;align=left;labelPosition=right;verticalLabelPosition=middle;verticalAlign=middle;spacingLeft=5;" parent="2" vertex="1">
          <mxGeometry x="10" y="810" width="20" height="10" as="geometry" />
        </mxCell>
        <mxCell id="11" value="Device capabilities" style="rounded=0;html=1;shadow=0;labelBackgroundColor=none;strokeColor=none;strokeWidth=2;fillColor=#A72870;gradientColor=none;fontSize=12;fontColor=#4277BB;align=left;labelPosition=right;verticalLabelPosition=middle;verticalAlign=middle;spacingLeft=5;" parent="2" vertex="1">
          <mxGeometry x="10" y="830" width="20" height="10" as="geometry" />
        </mxCell>
        <mxCell id="12" value="Security" style="rounded=0;html=1;shadow=0;labelBackgroundColor=none;strokeColor=none;strokeWidth=2;fillColor=#E52134;gradientColor=none;fontSize=12;fontColor=#4277BB;align=left;labelPosition=right;verticalLabelPosition=middle;verticalAlign=middle;spacingLeft=5;" parent="2" vertex="1">
          <mxGeometry x="10" y="850" width="20" height="10" as="geometry" />
        </mxCell>
        <mxCell id="13" value="LEGEND" style="text;html=1;align=left;verticalAlign=middle;fontColor=#4277BB;shadow=0;dashed=0;strokeColor=none;fillColor=none;labelBackgroundColor=none;fontStyle=1;fontSize=14;spacingLeft=0;" parent="2" vertex="1">
          <mxGeometry x="10" y="700" width="150" height="20" as="geometry" />
        </mxCell>
        <mxCell id="14" value="Users" style="rounded=0;html=1;shadow=0;labelBackgroundColor=none;strokeColor=none;strokeWidth=2;fillColor=#C2952D;gradientColor=none;fontSize=12;fontColor=#4277BB;align=left;labelPosition=right;verticalLabelPosition=middle;verticalAlign=middle;spacingLeft=5;" parent="2" vertex="1">
          <mxGeometry x="10" y="870" width="20" height="10" as="geometry" />
        </mxCell>
        <mxCell id="16" value="" style="line;strokeWidth=3;direction=south;html=1;shadow=0;labelBackgroundColor=none;fillColor=none;gradientColor=none;fontSize=12;fontColor=#4277BB;align=right;strokeColor=#4277BB;" parent="2" vertex="1">
          <mxGeometry x="205" y="370" width="10" height="520" as="geometry" />
        </mxCell>
        <mxCell id="17" value="" style="swimlane;shadow=0;strokeColor=#4277BB;fillColor=#ffffff;fontColor=#4277BB;align=right;startSize=0;collapsible=0;strokeWidth=3;" parent="2" vertex="1">
          <mxGeometry x="394" y="780" width="516" height="90" as="geometry" />
        </mxCell>
        <mxCell id="18" value="CLOUD SECURITY" style="aspect=fixed;perimeter=ellipsePerimeter;html=1;align=left;shadow=0;dashed=0;image;image=img/lib/ibm/blockchain/certificate_authority.svg;labelBackgroundColor=#ffffff;strokeColor=#666666;strokeWidth=3;fillColor=#C2952D;gradientColor=none;fontSize=12;fontColor=#4277BB;labelPosition=right;verticalLabelPosition=middle;verticalAlign=middle;" parent="17" vertex="1">
          <mxGeometry x="34" y="15" width="60" height="60" as="geometry" />
        </mxCell>
        <mxCell id="19" style="edgeStyle=orthogonalEdgeStyle;rounded=0;comic=0;html=1;exitX=1;exitY=0.5;entryX=0;entryY=0.25;startArrow=classic;startFill=1;endArrow=classic;endFill=1;jettySize=auto;orthogonalLoop=1;strokeColor=#4378BB;strokeWidth=2;fontFamily=Helvetica;fontSize=19;fontColor=#CC99FF;endSize=4;startSize=4;" parent="2" source="20" target="26" edge="1">
          <mxGeometry relative="1" as="geometry">
            <Array as="points">
              <mxPoint x="155" y="106" />
              <mxPoint x="155" y="283" />
              <mxPoint x="180" y="283" />
            </Array>
          </mxGeometry>
        </mxCell>
        <mxCell id="20" value="CLOUD&lt;div&gt;USER&lt;/div&gt;" style="aspect=fixed;perimeter=ellipsePerimeter;html=1;align=center;shadow=0;dashed=0;image;image=img/lib/ibm/users/user.svg;labelBackgroundColor=#ffffff;strokeColor=#666666;strokeWidth=3;fillColor=#C2952D;gradientColor=none;fontSize=12;fontColor=#4277BB;" parent="2" vertex="1">
          <mxGeometry x="55" y="76" width="60" height="60" as="geometry" />
        </mxCell>
        <mxCell id="21" style="edgeStyle=orthogonalEdgeStyle;rounded=0;html=1;labelBackgroundColor=#ffffff;startArrow=classic;startFill=1;startSize=4;endArrow=classic;endFill=1;endSize=4;jettySize=auto;orthogonalLoop=1;strokeColor=#4378BB;strokeWidth=2;fontSize=19;fontColor=#CC99FF;" parent="2" source="22" target="26" edge="1">
          <mxGeometry relative="1" as="geometry">
            <Array as="points">
              <mxPoint x="135" y="216" />
              <mxPoint x="135" y="296" />
            </Array>
          </mxGeometry>
        </mxCell>
        <mxCell id="22" value="DEVICES" style="aspect=fixed;perimeter=ellipsePerimeter;html=1;align=center;shadow=0;dashed=0;image;image=img/lib/ibm/users/device.svg;labelBackgroundColor=#ffffff;strokeColor=#666666;strokeWidth=3;fillColor=#C2952D;gradientColor=none;fontSize=12;fontColor=#4277BB;" parent="2" vertex="1">
          <mxGeometry x="55" y="186" width="60" height="60" as="geometry" />
        </mxCell>
        <mxCell id="23" style="edgeStyle=orthogonalEdgeStyle;rounded=0;html=1;labelBackgroundColor=#ffffff;startArrow=classic;startFill=1;startSize=4;endArrow=classic;endFill=1;endSize=4;jettySize=auto;orthogonalLoop=1;strokeColor=#4378BB;strokeWidth=2;fontSize=19;fontColor=#CC99FF;" parent="2" source="24" target="26" edge="1">
          <mxGeometry relative="1" as="geometry">
            <Array as="points">
              <mxPoint x="155" y="400" />
              <mxPoint x="155" y="306" />
            </Array>
          </mxGeometry>
        </mxCell>
        <mxCell id="24" value="CLOUD" style="aspect=fixed;perimeter=ellipsePerimeter;html=1;align=center;shadow=0;dashed=0;image;image=img/lib/ibm/data/cloud.svg;labelBackgroundColor=#ffffff;strokeColor=#666666;strokeWidth=3;fillColor=#C2952D;gradientColor=none;fontSize=12;fontColor=#4277BB;" parent="2" vertex="1">
          <mxGeometry x="55" y="370" width="60" height="60" as="geometry" />
        </mxCell>
        <mxCell id="25" style="edgeStyle=orthogonalEdgeStyle;rounded=0;html=1;labelBackgroundColor=#ffffff;startArrow=classic;startFill=1;startSize=4;endArrow=classic;endFill=1;endSize=4;jettySize=auto;orthogonalLoop=1;strokeColor=#4378BB;strokeWidth=2;fontSize=19;fontColor=#CC99FF;" parent="2" source="26" target="28" edge="1">
          <mxGeometry relative="1" as="geometry" />
        </mxCell>
        <mxCell id="26" value="EDGE&lt;div&gt;SERVICES&lt;/div&gt;" style="aspect=fixed;perimeter=ellipsePerimeter;html=1;align=center;shadow=0;dashed=0;image;image=img/lib/ibm/infrastructure/edge_services.svg;labelBackgroundColor=#ffffff;strokeColor=#666666;strokeWidth=3;fillColor=#C2952D;gradientColor=none;fontSize=12;fontColor=#4277BB;" parent="2" vertex="1">
          <mxGeometry x="180" y="266" width="60" height="60" as="geometry" />
        </mxCell>
        <mxCell id="27" style="edgeStyle=elbowEdgeStyle;rounded=0;html=1;labelBackgroundColor=#ffffff;startArrow=classic;startFill=1;startSize=4;endArrow=classic;endFill=1;endSize=4;jettySize=auto;orthogonalLoop=1;strokeColor=#4378BB;strokeWidth=2;fontSize=19;fontColor=#CC99FF;elbow=vertical;" parent="2" source="28" target="35" edge="1">
          <mxGeometry relative="1" as="geometry">
            <mxPoint x="380" y="296" as="targetPoint" />
            <Array as="points">
              <mxPoint x="376" y="296" />
            </Array>
          </mxGeometry>
        </mxCell>
        <mxCell id="28" value="CLOUD" style="aspect=fixed;perimeter=ellipsePerimeter;html=1;align=center;shadow=0;dashed=0;image;image=img/lib/ibm/management/api_management.svg;labelBackgroundColor=#ffffff;strokeColor=#666666;strokeWidth=3;fillColor=#C2952D;gradientColor=none;fontSize=12;fontColor=#4277BB;" parent="2" vertex="1">
          <mxGeometry x="295" y="266" width="60" height="60" as="geometry" />
        </mxCell>
        <mxCell id="29" value="" style="swimlane;shadow=0;strokeColor=#4277BB;fillColor=#ffffff;fontColor=#4277BB;align=right;startSize=0;collapsible=0;strokeWidth=3;" parent="2" vertex="1">
          <mxGeometry x="394" y="44" width="516" height="141" as="geometry" />
        </mxCell>
        <mxCell id="30" value="COLLABORATIVE&lt;div&gt;DEVELOPMENT&lt;/div&gt;" style="aspect=fixed;perimeter=ellipsePerimeter;html=1;align=center;shadow=0;dashed=0;image;image=img/lib/ibm/devops/collaborative_development.svg;labelBackgroundColor=#ffffff;strokeColor=#666666;strokeWidth=3;fillColor=#C2952D;gradientColor=none;fontSize=12;fontColor=#4277BB;" parent="29" vertex="1">
          <mxGeometry x="34" y="32" width="60" height="60" as="geometry" />
        </mxCell>
        <mxCell id="31" value="CONTINUOUS&lt;div&gt;DEPLOY&lt;/div&gt;" style="aspect=fixed;perimeter=ellipsePerimeter;html=1;align=center;shadow=0;dashed=0;image;image=img/lib/ibm/devops/continuous_deploy.svg;labelBackgroundColor=#ffffff;strokeColor=#666666;strokeWidth=3;fillColor=#C2952D;gradientColor=none;fontSize=12;fontColor=#4277BB;" parent="29" vertex="1">
          <mxGeometry x="162" y="32" width="60" height="60" as="geometry" />
        </mxCell>
        <mxCell id="32" value="CONFIGURATION&lt;div&gt;MANAGEMENT&lt;/div&gt;" style="aspect=fixed;perimeter=ellipsePerimeter;html=1;align=center;shadow=0;dashed=0;image;image=img/lib/ibm/devops/configuration_management.svg;labelBackgroundColor=#ffffff;strokeColor=#666666;strokeWidth=3;fillColor=#C2952D;gradientColor=none;fontSize=12;fontColor=#4277BB;" parent="29" vertex="1">
          <mxGeometry x="289" y="32" width="60" height="60" as="geometry" />
        </mxCell>
        <mxCell id="33" value="CONTINUOUS&lt;div&gt;TESTING&lt;/div&gt;" style="aspect=fixed;perimeter=ellipsePerimeter;html=1;align=center;shadow=0;dashed=0;image;image=img/lib/ibm/devops/continuous_testing.svg;labelBackgroundColor=#ffffff;strokeColor=#666666;strokeWidth=3;fillColor=#C2952D;gradientColor=none;fontSize=12;fontColor=#4277BB;" parent="29" vertex="1">
          <mxGeometry x="417" y="32" width="60" height="60" as="geometry" />
        </mxCell>
        <mxCell id="34" value="DevOps" style="text;html=1;align=left;verticalAlign=top;fontColor=#4277BB;shadow=0;dashed=0;strokeColor=none;fillColor=none;labelBackgroundColor=none;fontStyle=0;fontSize=14;spacingLeft=5;" parent="29" vertex="1">
          <mxGeometry width="90" height="26" as="geometry" />
        </mxCell>
        <mxCell id="35" value="" style="swimlane;shadow=0;strokeColor=#4277BB;fillColor=#ffffff;fontColor=#4277BB;align=right;startSize=0;collapsible=0;strokeWidth=3;" parent="2" vertex="1">
          <mxGeometry x="394" y="200" width="516" height="380" as="geometry" />
        </mxCell>
        <mxCell id="52" value="CLOUD RUNTIME SERVICES" style="text;html=1;align=left;verticalAlign=top;fontColor=#4277BB;shadow=0;dashed=0;strokeColor=none;fillColor=none;labelBackgroundColor=none;fontStyle=0;fontSize=14;spacingLeft=5;" parent="35" vertex="1">
          <mxGeometry x="2" width="231" height="24" as="geometry" />
        </mxCell>
        <mxCell id="84" style="edgeStyle=orthogonalEdgeStyle;rounded=0;html=1;entryX=0;entryY=0.5;labelBackgroundColor=#ffffff;startArrow=classic;startFill=1;startSize=4;endArrow=classic;endFill=1;endSize=4;jettySize=auto;orthogonalLoop=1;strokeColor=#EEC11B;strokeWidth=2;fontSize=14;fontColor=#4277BB;" parent="35" source="65" target="68" edge="1">
          <mxGeometry relative="1" as="geometry" />
        </mxCell>
        <mxCell id="90" style="edgeStyle=orthogonalEdgeStyle;rounded=0;html=1;entryX=0.5;entryY=0;labelBackgroundColor=#ffffff;startArrow=classic;startFill=1;startSize=4;endArrow=classic;endFill=1;endSize=4;jettySize=auto;orthogonalLoop=1;strokeColor=#EEC11B;strokeWidth=2;fontSize=14;fontColor=#4277BB;" parent="35" source="65" target="72" edge="1">
          <mxGeometry relative="1" as="geometry" />
        </mxCell>
        <mxCell id="65" value="" style="swimlane;shadow=0;strokeColor=#4277BB;fillColor=#ffffff;fontColor=#4277BB;align=right;startSize=0;collapsible=0;strokeWidth=3;" parent="35" vertex="1">
          <mxGeometry x="25" y="40" width="100" height="80" as="geometry" />
        </mxCell>
        <mxCell id="66" value="" style="aspect=fixed;perimeter=ellipsePerimeter;html=1;align=center;shadow=0;dashed=0;image;image=img/lib/ibm/applications/microservice.svg;labelBackgroundColor=#ffffff;strokeColor=#666666;strokeWidth=3;fillColor=#C2952D;gradientColor=none;fontSize=12;fontColor=#4277BB;" parent="65" vertex="1">
          <mxGeometry x="9" y="10" width="82" height="60" as="geometry" />
        </mxCell>
        <mxCell id="85" style="edgeStyle=orthogonalEdgeStyle;rounded=0;html=1;entryX=0;entryY=0.5;labelBackgroundColor=#ffffff;startArrow=classic;startFill=1;startSize=4;endArrow=classic;endFill=1;endSize=4;jettySize=auto;orthogonalLoop=1;strokeColor=#EEC11B;strokeWidth=2;fontSize=14;fontColor=#4277BB;" parent="35" source="68" target="70" edge="1">
          <mxGeometry relative="1" as="geometry" />
        </mxCell>
        <mxCell id="68" value="" style="swimlane;shadow=0;strokeColor=#4277BB;fillColor=#ffffff;fontColor=#4277BB;align=right;startSize=0;collapsible=0;strokeWidth=3;" parent="35" vertex="1">
          <mxGeometry x="209" y="40" width="100" height="80" as="geometry" />
        </mxCell>
        <mxCell id="69" value="" style="aspect=fixed;perimeter=ellipsePerimeter;html=1;align=center;shadow=0;dashed=0;image;image=img/lib/ibm/applications/microservice.svg;labelBackgroundColor=#ffffff;strokeColor=#666666;strokeWidth=3;fillColor=#C2952D;gradientColor=none;fontSize=12;fontColor=#4277BB;" parent="68" vertex="1">
          <mxGeometry x="9" y="10" width="82" height="60" as="geometry" />
        </mxCell>
        <mxCell id="94" style="edgeStyle=orthogonalEdgeStyle;rounded=0;html=1;entryX=0.5;entryY=0;labelBackgroundColor=#ffffff;startArrow=classic;startFill=1;startSize=4;endArrow=classic;endFill=1;endSize=4;jettySize=auto;orthogonalLoop=1;strokeColor=#EEC11B;strokeWidth=2;fontSize=14;fontColor=#4277BB;" parent="35" source="70" target="76" edge="1">
          <mxGeometry relative="1" as="geometry" />
        </mxCell>
        <mxCell id="70" value="" style="swimlane;shadow=0;strokeColor=#4277BB;fillColor=#ffffff;fontColor=#4277BB;align=right;startSize=0;collapsible=0;strokeWidth=3;" parent="35" vertex="1">
          <mxGeometry x="386" y="40" width="100" height="80" as="geometry" />
        </mxCell>
        <mxCell id="71" value="" style="aspect=fixed;perimeter=ellipsePerimeter;html=1;align=center;shadow=0;dashed=0;image;image=img/lib/ibm/applications/microservice.svg;labelBackgroundColor=#ffffff;strokeColor=#666666;strokeWidth=3;fillColor=#C2952D;gradientColor=none;fontSize=12;fontColor=#4277BB;" parent="70" vertex="1">
          <mxGeometry x="9" y="10" width="82" height="60" as="geometry" />
        </mxCell>
        <mxCell id="86" style="edgeStyle=orthogonalEdgeStyle;rounded=0;html=1;entryX=0;entryY=0.5;labelBackgroundColor=#ffffff;startArrow=classic;startFill=1;startSize=4;endArrow=classic;endFill=1;endSize=4;jettySize=auto;orthogonalLoop=1;strokeColor=#EEC11B;strokeWidth=2;fontSize=14;fontColor=#4277BB;" parent="35" source="72" target="74" edge="1">
          <mxGeometry relative="1" as="geometry" />
        </mxCell>
        <mxCell id="91" style="edgeStyle=orthogonalEdgeStyle;rounded=0;html=1;entryX=0.5;entryY=0;labelBackgroundColor=#ffffff;startArrow=classic;startFill=1;startSize=4;endArrow=classic;endFill=1;endSize=4;jettySize=auto;orthogonalLoop=1;strokeColor=#EEC11B;strokeWidth=2;fontSize=14;fontColor=#4277BB;" parent="35" source="72" target="78" edge="1">
          <mxGeometry relative="1" as="geometry" />
        </mxCell>
        <mxCell id="72" value="" style="swimlane;shadow=0;strokeColor=#4277BB;fillColor=#ffffff;fontColor=#4277BB;align=right;startSize=0;collapsible=0;strokeWidth=3;" parent="35" vertex="1">
          <mxGeometry x="24.99999999999996" y="160" width="100" height="80" as="geometry" />
        </mxCell>
        <mxCell id="73" value="" style="aspect=fixed;perimeter=ellipsePerimeter;html=1;align=center;shadow=0;dashed=0;image;image=img/lib/ibm/applications/microservice.svg;labelBackgroundColor=#ffffff;strokeColor=#666666;strokeWidth=3;fillColor=#C2952D;gradientColor=none;fontSize=12;fontColor=#4277BB;" parent="72" vertex="1">
          <mxGeometry x="9" y="10" width="82" height="60" as="geometry" />
        </mxCell>
        <mxCell id="87" style="edgeStyle=orthogonalEdgeStyle;rounded=0;html=1;entryX=0;entryY=0.5;labelBackgroundColor=#ffffff;startArrow=classic;startFill=1;startSize=4;endArrow=classic;endFill=1;endSize=4;jettySize=auto;orthogonalLoop=1;strokeColor=#EEC11B;strokeWidth=2;fontSize=14;fontColor=#4277BB;" parent="35" source="74" target="76" edge="1">
          <mxGeometry relative="1" as="geometry" />
        </mxCell>
        <mxCell id="92" style="edgeStyle=orthogonalEdgeStyle;rounded=0;html=1;entryX=0.5;entryY=0;labelBackgroundColor=#ffffff;startArrow=classic;startFill=1;startSize=4;endArrow=classic;endFill=1;endSize=4;jettySize=auto;orthogonalLoop=1;strokeColor=#EEC11B;strokeWidth=2;fontSize=14;fontColor=#4277BB;" parent="35" source="74" target="80" edge="1">
          <mxGeometry relative="1" as="geometry" />
        </mxCell>
        <mxCell id="74" value="" style="swimlane;shadow=0;strokeColor=#FF0000;fillColor=#ffffff;fontColor=#4277BB;align=right;startSize=0;collapsible=0;strokeWidth=3;" parent="35" vertex="1">
          <mxGeometry x="209" y="160" width="101" height="80" as="geometry" />
        </mxCell>
        <object label="" placeholders="1" Chatbot="Chatbot" id="75">
          <mxCell style="aspect=fixed;perimeter=ellipsePerimeter;html=1;align=center;shadow=0;dashed=0;image;image=img/lib/ibm/applications/microservice.svg;labelBackgroundColor=#ffffff;strokeColor=#666666;strokeWidth=3;fillColor=#C2952D;gradientColor=none;fontSize=12;fontColor=#4277BB;" parent="74" vertex="1">
            <mxGeometry x="9" y="20" width="82" height="60" as="geometry" />
          </mxCell>
        </object>
        <mxCell id="1r9DKnqt9Mp9a_vY9GGe-96" value="&lt;div&gt;&lt;font style=&quot;font-size: 18px&quot;&gt;&lt;b&gt;Watson &lt;br&gt;&lt;/b&gt;&lt;/font&gt;&lt;/div&gt;&lt;div&gt;&lt;font style=&quot;font-size: 18px&quot;&gt;&lt;b&gt;Assistant&lt;/b&gt;&lt;/font&gt;&lt;/div&gt;" style="text;html=1;resizable=0;autosize=1;align=center;verticalAlign=middle;points=[];fillColor=none;strokeColor=none;rounded=0;" vertex="1" parent="74">
          <mxGeometry x="1.0000000000002274" y="-18" width="100" height="40" as="geometry" />
        </mxCell>
        <mxCell id="95" style="edgeStyle=orthogonalEdgeStyle;rounded=0;html=1;entryX=0.5;entryY=0;labelBackgroundColor=#ffffff;startArrow=classic;startFill=1;startSize=4;endArrow=classic;endFill=1;endSize=4;jettySize=auto;orthogonalLoop=1;strokeColor=#EEC11B;strokeWidth=2;fontSize=14;fontColor=#4277BB;" parent="35" source="76" target="82" edge="1">
          <mxGeometry relative="1" as="geometry" />
        </mxCell>
        <mxCell id="76" value="" style="swimlane;shadow=0;strokeColor=#4277BB;fillColor=#ffffff;fontColor=#4277BB;align=right;startSize=0;collapsible=0;strokeWidth=3;" parent="35" vertex="1">
          <mxGeometry x="386.00000000000017" y="160" width="100" height="80" as="geometry" />
        </mxCell>
        <mxCell id="77" value="" style="aspect=fixed;perimeter=ellipsePerimeter;html=1;align=center;shadow=0;dashed=0;image;image=img/lib/ibm/applications/microservice.svg;labelBackgroundColor=#ffffff;strokeColor=#666666;strokeWidth=3;fillColor=#C2952D;gradientColor=none;fontSize=12;fontColor=#4277BB;" parent="76" vertex="1">
          <mxGeometry x="9" y="10" width="82" height="60" as="geometry" />
        </mxCell>
        <mxCell id="88" style="edgeStyle=orthogonalEdgeStyle;rounded=0;html=1;entryX=0;entryY=0.5;labelBackgroundColor=#ffffff;startArrow=classic;startFill=1;startSize=4;endArrow=classic;endFill=1;endSize=4;jettySize=auto;orthogonalLoop=1;strokeColor=#EEC11B;strokeWidth=2;fontSize=14;fontColor=#4277BB;" parent="35" source="78" target="80" edge="1">
          <mxGeometry relative="1" as="geometry" />
        </mxCell>
        <mxCell id="78" value="" style="swimlane;shadow=0;strokeColor=#4277BB;fillColor=#ffffff;fontColor=#4277BB;align=right;startSize=0;collapsible=0;strokeWidth=3;" parent="35" vertex="1">
          <mxGeometry x="24.99999999999996" y="280" width="100" height="80" as="geometry" />
        </mxCell>
        <mxCell id="79" value="" style="aspect=fixed;perimeter=ellipsePerimeter;html=1;align=center;shadow=0;dashed=0;image;image=img/lib/ibm/applications/microservice.svg;labelBackgroundColor=#ffffff;strokeColor=#666666;strokeWidth=3;fillColor=#C2952D;gradientColor=none;fontSize=12;fontColor=#4277BB;" parent="78" vertex="1">
          <mxGeometry x="9" y="10" width="82" height="60" as="geometry" />
        </mxCell>
        <mxCell id="89" style="edgeStyle=orthogonalEdgeStyle;rounded=0;html=1;entryX=0;entryY=0.5;labelBackgroundColor=#ffffff;startArrow=classic;startFill=1;startSize=4;endArrow=classic;endFill=1;endSize=4;jettySize=auto;orthogonalLoop=1;strokeColor=#EEC11B;strokeWidth=2;fontSize=14;fontColor=#4277BB;" parent="35" source="80" target="82" edge="1">
          <mxGeometry relative="1" as="geometry" />
        </mxCell>
        <mxCell id="80" value="" style="swimlane;shadow=0;strokeColor=#4277BB;fillColor=#ffffff;fontColor=#4277BB;align=right;startSize=0;collapsible=0;strokeWidth=3;" parent="35" vertex="1">
          <mxGeometry x="208.99999999999977" y="280" width="100" height="80" as="geometry" />
        </mxCell>
        <mxCell id="81" value="" style="aspect=fixed;perimeter=ellipsePerimeter;html=1;align=center;shadow=0;dashed=0;image;image=img/lib/ibm/applications/microservice.svg;labelBackgroundColor=#ffffff;strokeColor=#666666;strokeWidth=3;fillColor=#C2952D;gradientColor=none;fontSize=12;fontColor=#4277BB;" parent="80" vertex="1">
          <mxGeometry x="9" y="10" width="82" height="60" as="geometry" />
        </mxCell>
        <mxCell id="82" value="" style="swimlane;shadow=0;strokeColor=#4277BB;fillColor=#ffffff;fontColor=#4277BB;align=right;startSize=0;collapsible=0;strokeWidth=3;" parent="35" vertex="1">
          <mxGeometry x="386.00000000000017" y="280" width="100" height="80" as="geometry" />
        </mxCell>
        <mxCell id="83" value="" style="aspect=fixed;perimeter=ellipsePerimeter;html=1;align=center;shadow=0;dashed=0;image;image=img/lib/ibm/applications/microservice.svg;labelBackgroundColor=#ffffff;strokeColor=#666666;strokeWidth=3;fillColor=#C2952D;gradientColor=none;fontSize=12;fontColor=#4277BB;" parent="82" vertex="1">
          <mxGeometry x="9" y="10" width="82" height="60" as="geometry" />
        </mxCell>
        <mxCell id="1r9DKnqt9Mp9a_vY9GGe-97" value="" style="edgeStyle=orthogonalEdgeStyle;rounded=0;html=1;entryX=0.5;entryY=0;labelBackgroundColor=#ffffff;startArrow=classic;startFill=1;startSize=4;endArrow=none;endFill=1;endSize=4;jettySize=auto;orthogonalLoop=1;strokeColor=#EEC11B;strokeWidth=2;fontSize=14;fontColor=#4277BB;" edge="1" parent="35" source="68" target="1r9DKnqt9Mp9a_vY9GGe-96">
          <mxGeometry relative="1" as="geometry">
            <mxPoint x="900" y="460" as="sourcePoint" />
            <mxPoint x="900" y="500" as="targetPoint" />
          </mxGeometry>
        </mxCell>
        <mxCell id="55" value="" style="swimlane;shadow=0;strokeColor=#4277BB;fillColor=#ffffff;fontColor=#4277BB;align=right;startSize=0;collapsible=0;strokeWidth=3;" parent="2" vertex="1">
          <mxGeometry x="394" y="596" width="516" height="164" as="geometry" />
        </mxCell>
        <mxCell id="56" value="MONITORING &amp;amp;&lt;div&gt;LOGGING&lt;/div&gt;" style="aspect=fixed;perimeter=ellipsePerimeter;html=1;align=center;shadow=0;dashed=0;image;image=img/lib/ibm/infrastructure/monitoring_logging.svg;labelBackgroundColor=none;strokeColor=#666666;strokeWidth=3;fillColor=#C2952D;gradientColor=none;fontSize=12;fontColor=#4277BB;" parent="55" vertex="1">
          <mxGeometry x="34" y="44" width="60" height="60" as="geometry" />
        </mxCell>
        <mxCell id="57" value="SERVICE&lt;div&gt;REGISTRATION /&amp;nbsp;&lt;/div&gt;&lt;div&gt;DISCOVERY&lt;/div&gt;" style="aspect=fixed;perimeter=ellipsePerimeter;html=1;align=center;shadow=0;dashed=0;image;image=img/lib/ibm/infrastructure/service_discovery_configuration.svg;labelBackgroundColor=none;strokeColor=#666666;strokeWidth=3;fillColor=#C2952D;gradientColor=none;fontSize=12;fontColor=#4277BB;" parent="55" vertex="1">
          <mxGeometry x="162" y="44" width="60" height="60" as="geometry" />
        </mxCell>
        <mxCell id="58" value="LOAD&amp;nbsp;&lt;span&gt;BALANCING&lt;/span&gt;&lt;div&gt;ROUTING&lt;/div&gt;" style="aspect=fixed;perimeter=ellipsePerimeter;html=1;align=center;shadow=0;dashed=0;image;image=img/lib/ibm/infrastructure/load_balancing_routing.svg;labelBackgroundColor=none;strokeColor=#666666;strokeWidth=3;fillColor=#C2952D;gradientColor=none;fontSize=12;fontColor=#4277BB;" parent="55" vertex="1">
          <mxGeometry x="289" y="44" width="60" height="60" as="geometry" />
        </mxCell>
        <mxCell id="59" value="INTERSERVICE&lt;div&gt;COMMUNICATION&lt;/div&gt;" style="aspect=fixed;perimeter=ellipsePerimeter;html=1;align=center;shadow=0;dashed=0;image;image=img/lib/ibm/infrastructure/interservice_communication.svg;labelBackgroundColor=none;strokeColor=#666666;strokeWidth=3;fillColor=#C2952D;gradientColor=none;fontSize=12;fontColor=#4277BB;" parent="55" vertex="1">
          <mxGeometry x="417" y="44" width="60" height="60" as="geometry" />
        </mxCell>
        <mxCell id="60" value="INFRASTRUCTURE SERVICES" style="text;html=1;align=left;verticalAlign=top;fontColor=#4277BB;shadow=0;dashed=0;strokeColor=none;fillColor=none;labelBackgroundColor=none;fontStyle=0;fontSize=14;spacingLeft=5;" parent="55" vertex="1">
          <mxGeometry x="1" width="231" height="24" as="geometry" />
        </mxCell>
        <mxCell id="61" style="edgeStyle=elbowEdgeStyle;rounded=0;html=1;labelBackgroundColor=#ffffff;startArrow=classic;startFill=1;startSize=4;endArrow=classic;endFill=1;endSize=4;jettySize=auto;orthogonalLoop=1;strokeColor=#4378BB;strokeWidth=2;fontSize=19;fontColor=#CC99FF;elbow=vertical;" parent="2" source="62" target="35" edge="1">
          <mxGeometry relative="1" as="geometry">
            <mxPoint x="930" y="330" as="targetPoint" />
            <Array as="points">
              <mxPoint x="982" y="322" />
            </Array>
          </mxGeometry>
        </mxCell>
        <mxCell id="62" value="TRANSFORMATION &amp;amp;&lt;div&gt;CONNECTIVITY&lt;/div&gt;" style="aspect=fixed;perimeter=ellipsePerimeter;html=1;align=center;shadow=0;dashed=0;image;image=img/lib/ibm/infrastructure/transformation_connectivity.svg;labelBackgroundColor=#ffffff;strokeColor=#666666;strokeWidth=3;fillColor=#C2952D;gradientColor=none;fontSize=12;fontColor=#4277BB;" parent="2" vertex="1">
          <mxGeometry x="1051" y="290" width="60" height="60" as="geometry" />
        </mxCell>
        <mxCell id="63" style="edgeStyle=elbowEdgeStyle;rounded=0;html=1;labelBackgroundColor=#ffffff;startArrow=classic;startFill=1;startSize=4;endArrow=classic;endFill=1;endSize=4;jettySize=auto;orthogonalLoop=1;strokeColor=#4378BB;strokeWidth=2;fontSize=19;fontColor=#CC99FF;elbow=vertical;" parent="2" source="64" target="35" edge="1">
          <mxGeometry relative="1" as="geometry">
            <mxPoint x="930" y="438" as="targetPoint" />
            <Array as="points">
              <mxPoint x="981" y="438" />
            </Array>
          </mxGeometry>
        </mxCell>
        <mxCell id="64" value="CLOUD DATA&lt;div&gt;SERVICES&lt;/div&gt;" style="aspect=fixed;perimeter=ellipsePerimeter;html=1;align=center;shadow=0;dashed=0;image;image=img/lib/ibm/data/enterprise_data.svg;labelBackgroundColor=#ffffff;strokeColor=#666666;strokeWidth=3;fillColor=#C2952D;gradientColor=none;fontSize=12;fontColor=#4277BB;" parent="2" vertex="1">
          <mxGeometry x="1051" y="408" width="60" height="60" as="geometry" />
        </mxCell>
        <mxCell id="1r9DKnqt9Mp9a_vY9GGe-98" value="" style="shape=singleArrow;direction=north;whiteSpace=wrap;html=1;fontSize=18;strokeColor=#FF0000;rotation=75;" vertex="1" parent="2">
          <mxGeometry x="926.53" y="26.65" width="60" height="518" as="geometry" />
        </mxCell>
        <mxCell id="1r9DKnqt9Mp9a_vY9GGe-99" value="&lt;div&gt;Greeting and Prompt for question:&lt;/div&gt;&lt;div&gt;1: Profile&lt;/div&gt;&lt;div&gt;2: Schedule&lt;/div&gt;&lt;div&gt;3: Noticeboard&lt;/div&gt;&lt;div&gt;4: Others&lt;br&gt;&lt;/div&gt;" style="rounded=0;whiteSpace=wrap;html=1;fontSize=18;strokeColor=#FF0000;" vertex="1" parent="1">
          <mxGeometry x="1270" y="-20" width="330" height="150" as="geometry" />
        </mxCell>
        <mxCell id="1r9DKnqt9Mp9a_vY9GGe-100" value="Start" style="ellipse;whiteSpace=wrap;html=1;fontSize=18;strokeColor=#FF0000;" vertex="1" parent="1">
          <mxGeometry x="1375" y="-190" width="120" height="80" as="geometry" />
        </mxCell>
        <mxCell id="1r9DKnqt9Mp9a_vY9GGe-101" value="" style="endArrow=none;html=1;rounded=0;fontSize=18;entryX=0.5;entryY=1;entryDx=0;entryDy=0;" edge="1" parent="1" target="1r9DKnqt9Mp9a_vY9GGe-119">
          <mxGeometry width="50" height="50" relative="1" as="geometry">
            <mxPoint x="1440" y="890" as="sourcePoint" />
            <mxPoint x="1470" y="530" as="targetPoint" />
          </mxGeometry>
        </mxCell>
        <mxCell id="1r9DKnqt9Mp9a_vY9GGe-106" value="Display short help on the topic and provide Internal link to Profile function in the app" style="rounded=0;whiteSpace=wrap;html=1;fontSize=18;strokeColor=#FF0000;" vertex="1" parent="1">
          <mxGeometry x="1550" y="385" width="200" height="100" as="geometry" />
        </mxCell>
        <mxCell id="1r9DKnqt9Mp9a_vY9GGe-107" value="Display short help on the topic and provide internal link to Schedule function in the app" style="rounded=0;whiteSpace=wrap;html=1;fontSize=18;strokeColor=#FF0000;" vertex="1" parent="1">
          <mxGeometry x="1550" y="525" width="210" height="90" as="geometry" />
        </mxCell>
        <mxCell id="1r9DKnqt9Mp9a_vY9GGe-108" value="&lt;div&gt;Display short help on the topic and provide Internal link to Noticeboard &lt;br&gt;&lt;/div&gt;&lt;div&gt;function in the app&lt;/div&gt;" style="rounded=0;whiteSpace=wrap;html=1;fontSize=18;strokeColor=#FF0000;" vertex="1" parent="1">
          <mxGeometry x="1560" y="660" width="200" height="105" as="geometry" />
        </mxCell>
        <mxCell id="1r9DKnqt9Mp9a_vY9GGe-109" value="&lt;div&gt;Profile related&lt;/div&gt;&lt;div&gt; questions&lt;/div&gt;" style="text;html=1;resizable=0;autosize=1;align=center;verticalAlign=middle;points=[];fillColor=none;strokeColor=none;rounded=0;fontSize=18;" vertex="1" parent="1">
          <mxGeometry x="1430" y="365" width="130" height="50" as="geometry" />
        </mxCell>
        <mxCell id="1r9DKnqt9Mp9a_vY9GGe-110" value="&lt;div&gt;Schedule &lt;br&gt;&lt;/div&gt;&lt;div&gt;related&lt;/div&gt;&lt;div&gt;questions&lt;br&gt;&lt;/div&gt;" style="text;html=1;resizable=0;autosize=1;align=center;verticalAlign=middle;points=[];fillColor=none;strokeColor=none;rounded=0;fontSize=18;" vertex="1" parent="1">
          <mxGeometry x="1460" y="495" width="90" height="70" as="geometry" />
        </mxCell>
        <mxCell id="1r9DKnqt9Mp9a_vY9GGe-140" value="" style="edgeStyle=orthogonalEdgeStyle;rounded=0;orthogonalLoop=1;jettySize=auto;html=1;fontSize=18;entryX=0;entryY=0.5;entryDx=0;entryDy=0;" edge="1" parent="1" target="1r9DKnqt9Mp9a_vY9GGe-108">
          <mxGeometry relative="1" as="geometry">
            <mxPoint x="1440" y="713" as="sourcePoint" />
          </mxGeometry>
        </mxCell>
        <mxCell id="1r9DKnqt9Mp9a_vY9GGe-111" value="&lt;div&gt;Noticeboard&lt;/div&gt;&lt;div&gt; related&lt;/div&gt;&lt;div&gt;quesitons&lt;br&gt;&lt;/div&gt;" style="text;html=1;resizable=0;autosize=1;align=center;verticalAlign=middle;points=[];fillColor=none;strokeColor=none;rounded=0;fontSize=18;" vertex="1" parent="1">
          <mxGeometry x="1440" y="630" width="110" height="70" as="geometry" />
        </mxCell>
        <mxCell id="1r9DKnqt9Mp9a_vY9GGe-112" value="&lt;div&gt;Others &lt;br&gt;&lt;/div&gt;&lt;div&gt;questions&lt;/div&gt;" style="text;html=1;resizable=0;autosize=1;align=center;verticalAlign=middle;points=[];fillColor=none;strokeColor=none;rounded=0;fontSize=18;" vertex="1" parent="1">
          <mxGeometry x="1460" y="825" width="90" height="50" as="geometry" />
        </mxCell>
        <mxCell id="1r9DKnqt9Mp9a_vY9GGe-113" value="Check internal DB to answer user" style="rounded=0;whiteSpace=wrap;html=1;fontSize=18;strokeColor=#FF0000;" vertex="1" parent="1">
          <mxGeometry x="1570" y="855" width="160" height="60" as="geometry" />
        </mxCell>
        <mxCell id="1r9DKnqt9Mp9a_vY9GGe-114" value="" style="endArrow=classic;html=1;rounded=0;fontSize=18;entryX=0;entryY=0.5;entryDx=0;entryDy=0;" edge="1" parent="1" target="1r9DKnqt9Mp9a_vY9GGe-106">
          <mxGeometry width="50" height="50" relative="1" as="geometry">
            <mxPoint x="1440" y="435" as="sourcePoint" />
            <mxPoint x="1540" y="505" as="targetPoint" />
          </mxGeometry>
        </mxCell>
        <mxCell id="1r9DKnqt9Mp9a_vY9GGe-115" value="" style="endArrow=classic;html=1;rounded=0;fontSize=18;entryX=0;entryY=0.5;entryDx=0;entryDy=0;" edge="1" parent="1">
          <mxGeometry width="50" height="50" relative="1" as="geometry">
            <mxPoint x="1430" y="570" as="sourcePoint" />
            <mxPoint x="1550" y="570" as="targetPoint" />
          </mxGeometry>
        </mxCell>
        <mxCell id="1r9DKnqt9Mp9a_vY9GGe-117" value="" style="endArrow=classic;html=1;rounded=0;fontSize=18;entryX=0;entryY=0.5;entryDx=0;entryDy=0;" edge="1" parent="1" target="1r9DKnqt9Mp9a_vY9GGe-113">
          <mxGeometry width="50" height="50" relative="1" as="geometry">
            <mxPoint x="1440" y="884" as="sourcePoint" />
            <mxPoint x="1550" y="884.17" as="targetPoint" />
          </mxGeometry>
        </mxCell>
        <mxCell id="1r9DKnqt9Mp9a_vY9GGe-119" value="Check user input" style="rhombus;whiteSpace=wrap;html=1;fontSize=18;strokeColor=#FF0000;" vertex="1" parent="1">
          <mxGeometry x="1320" y="205" width="230" height="80" as="geometry" />
        </mxCell>
        <mxCell id="1r9DKnqt9Mp9a_vY9GGe-120" value="&lt;div&gt;Does user &lt;br&gt;&lt;/div&gt;&lt;div&gt;satisfied &lt;br&gt;&lt;/div&gt;&lt;div&gt;with the answer&lt;/div&gt;" style="rhombus;whiteSpace=wrap;html=1;fontSize=18;strokeColor=#FF0000;" vertex="1" parent="1">
          <mxGeometry x="1860" y="525" width="230" height="115" as="geometry" />
        </mxCell>
        <mxCell id="1r9DKnqt9Mp9a_vY9GGe-121" value="" style="endArrow=none;html=1;rounded=0;fontSize=18;entryX=0.5;entryY=1;entryDx=0;entryDy=0;" edge="1" parent="1" target="1r9DKnqt9Mp9a_vY9GGe-120">
          <mxGeometry width="50" height="50" relative="1" as="geometry">
            <mxPoint x="1975" y="955" as="sourcePoint" />
            <mxPoint x="2010" y="725" as="targetPoint" />
          </mxGeometry>
        </mxCell>
        <mxCell id="1r9DKnqt9Mp9a_vY9GGe-122" value="" style="endArrow=none;html=1;rounded=0;fontSize=18;" edge="1" parent="1">
          <mxGeometry width="50" height="50" relative="1" as="geometry">
            <mxPoint x="1360" y="955" as="sourcePoint" />
            <mxPoint x="1970" y="955" as="targetPoint" />
          </mxGeometry>
        </mxCell>
        <mxCell id="1r9DKnqt9Mp9a_vY9GGe-124" value="" style="endArrow=none;html=1;rounded=0;fontSize=18;" edge="1" parent="1">
          <mxGeometry width="50" height="50" relative="1" as="geometry">
            <mxPoint x="1360" y="960" as="sourcePoint" />
            <mxPoint x="1350" y="340" as="targetPoint" />
          </mxGeometry>
        </mxCell>
        <mxCell id="1r9DKnqt9Mp9a_vY9GGe-125" value="" style="endArrow=classic;html=1;rounded=0;fontSize=18;" edge="1" parent="1">
          <mxGeometry width="50" height="50" relative="1" as="geometry">
            <mxPoint x="1350" y="340" as="sourcePoint" />
            <mxPoint x="1440" y="340" as="targetPoint" />
          </mxGeometry>
        </mxCell>
        <mxCell id="1r9DKnqt9Mp9a_vY9GGe-127" value="" style="endArrow=none;html=1;rounded=0;fontSize=18;exitX=1;exitY=0.5;exitDx=0;exitDy=0;" edge="1" parent="1" source="1r9DKnqt9Mp9a_vY9GGe-106">
          <mxGeometry width="50" height="50" relative="1" as="geometry">
            <mxPoint x="1980" y="455" as="sourcePoint" />
            <mxPoint x="1810" y="435" as="targetPoint" />
          </mxGeometry>
        </mxCell>
        <mxCell id="1r9DKnqt9Mp9a_vY9GGe-128" value="" style="endArrow=none;html=1;rounded=0;fontSize=18;exitX=1;exitY=0.556;exitDx=0;exitDy=0;exitPerimeter=0;" edge="1" parent="1" source="1r9DKnqt9Mp9a_vY9GGe-107">
          <mxGeometry width="50" height="50" relative="1" as="geometry">
            <mxPoint x="1770" y="575" as="sourcePoint" />
            <mxPoint x="1810" y="575" as="targetPoint" />
          </mxGeometry>
        </mxCell>
        <mxCell id="1r9DKnqt9Mp9a_vY9GGe-129" value="" style="endArrow=none;html=1;rounded=0;fontSize=18;exitX=1;exitY=0.5;exitDx=0;exitDy=0;" edge="1" parent="1" source="1r9DKnqt9Mp9a_vY9GGe-108">
          <mxGeometry width="50" height="50" relative="1" as="geometry">
            <mxPoint x="1720" y="745" as="sourcePoint" />
            <mxPoint x="1820" y="713" as="targetPoint" />
          </mxGeometry>
        </mxCell>
        <mxCell id="1r9DKnqt9Mp9a_vY9GGe-130" value="" style="endArrow=none;html=1;rounded=0;fontSize=18;exitX=1;exitY=0.5;exitDx=0;exitDy=0;" edge="1" parent="1" source="1r9DKnqt9Mp9a_vY9GGe-113">
          <mxGeometry width="50" height="50" relative="1" as="geometry">
            <mxPoint x="1710" y="884.1700000000001" as="sourcePoint" />
            <mxPoint x="1820" y="884" as="targetPoint" />
          </mxGeometry>
        </mxCell>
        <mxCell id="1r9DKnqt9Mp9a_vY9GGe-131" value="" style="endArrow=none;html=1;rounded=0;fontSize=18;" edge="1" parent="1">
          <mxGeometry width="50" height="50" relative="1" as="geometry">
            <mxPoint x="1810" y="435" as="sourcePoint" />
            <mxPoint x="1820" y="885" as="targetPoint" />
          </mxGeometry>
        </mxCell>
        <mxCell id="1r9DKnqt9Mp9a_vY9GGe-132" value="" style="endArrow=classic;html=1;rounded=0;fontSize=18;" edge="1" parent="1" target="1r9DKnqt9Mp9a_vY9GGe-120">
          <mxGeometry width="50" height="50" relative="1" as="geometry">
            <mxPoint x="1810" y="585" as="sourcePoint" />
            <mxPoint x="1940" y="485" as="targetPoint" />
          </mxGeometry>
        </mxCell>
        <mxCell id="1r9DKnqt9Mp9a_vY9GGe-133" value="No" style="text;html=1;resizable=0;autosize=1;align=center;verticalAlign=middle;points=[];fillColor=none;strokeColor=none;rounded=0;fontSize=18;" vertex="1" parent="1">
          <mxGeometry x="1990" y="725" width="40" height="30" as="geometry" />
        </mxCell>
        <mxCell id="1r9DKnqt9Mp9a_vY9GGe-134" value="Yes" style="text;html=1;resizable=0;autosize=1;align=center;verticalAlign=middle;points=[];fillColor=none;strokeColor=none;rounded=0;fontSize=18;" vertex="1" parent="1">
          <mxGeometry x="2130" y="545" width="50" height="30" as="geometry" />
        </mxCell>
        <mxCell id="1r9DKnqt9Mp9a_vY9GGe-135" value="" style="endArrow=classic;html=1;rounded=0;fontSize=18;" edge="1" parent="1" source="1r9DKnqt9Mp9a_vY9GGe-120">
          <mxGeometry width="50" height="50" relative="1" as="geometry">
            <mxPoint x="2210" y="685" as="sourcePoint" />
            <mxPoint x="2240" y="585" as="targetPoint" />
            <Array as="points">
              <mxPoint x="2150" y="585" />
            </Array>
          </mxGeometry>
        </mxCell>
        <mxCell id="1r9DKnqt9Mp9a_vY9GGe-136" value="End Chat" style="ellipse;whiteSpace=wrap;html=1;fontSize=18;strokeColor=#FF0000;" vertex="1" parent="1">
          <mxGeometry x="2240" y="555" width="120" height="80" as="geometry" />
        </mxCell>
        <mxCell id="1r9DKnqt9Mp9a_vY9GGe-138" value="" style="endArrow=classic;html=1;rounded=0;fontSize=18;exitX=0.5;exitY=1;exitDx=0;exitDy=0;entryX=0.5;entryY=0;entryDx=0;entryDy=0;" edge="1" parent="1" source="1r9DKnqt9Mp9a_vY9GGe-99" target="1r9DKnqt9Mp9a_vY9GGe-119">
          <mxGeometry width="50" height="50" relative="1" as="geometry">
            <mxPoint x="1550" y="220" as="sourcePoint" />
            <mxPoint x="1600" y="170" as="targetPoint" />
          </mxGeometry>
        </mxCell>
        <mxCell id="1r9DKnqt9Mp9a_vY9GGe-139" value="" style="endArrow=classic;html=1;rounded=0;fontSize=18;exitX=0.5;exitY=1;exitDx=0;exitDy=0;entryX=0.5;entryY=0;entryDx=0;entryDy=0;" edge="1" parent="1" source="1r9DKnqt9Mp9a_vY9GGe-100" target="1r9DKnqt9Mp9a_vY9GGe-99">
          <mxGeometry width="50" height="50" relative="1" as="geometry">
            <mxPoint x="1362.5" y="140" as="sourcePoint" />
            <mxPoint x="1364.4652049571023" y="190.53384175405154" as="targetPoint" />
          </mxGeometry>
        </mxCell>
        <mxCell id="1r9DKnqt9Mp9a_vY9GGe-142" value="&lt;font style=&quot;font-size: 36px&quot;&gt;Cloudant NoSQL database&lt;br&gt;&lt;/font&gt;" style="aspect=fixed;perimeter=ellipsePerimeter;html=1;align=center;shadow=0;dashed=0;fontColor=#4277BB;labelBackgroundColor=#ffffff;fontSize=12;spacingTop=3;image;image=img/lib/ibm/miscellaneous/cloudant.svg;strokeColor=#FF0000;" vertex="1" parent="1">
          <mxGeometry x="1930" y="1440" width="220" height="220" as="geometry" />
        </mxCell>
        <mxCell id="1r9DKnqt9Mp9a_vY9GGe-143" value="&lt;font style=&quot;font-size: 36px&quot;&gt;IKS&lt;/font&gt;" style="aspect=fixed;perimeter=ellipsePerimeter;html=1;align=center;shadow=0;dashed=0;fontColor=#4277BB;labelBackgroundColor=#ffffff;fontSize=12;spacingTop=3;image;image=img/lib/ibm/miscellaneous/ibm_containers.svg;strokeColor=#FF0000;" vertex="1" parent="1">
          <mxGeometry x="1900" y="1060" width="250" height="250" as="geometry" />
        </mxCell>
        <mxCell id="1r9DKnqt9Mp9a_vY9GGe-224" value="" style="shape=doubleArrow;whiteSpace=wrap;html=1;fontSize=36;strokeColor=#FF0000;" vertex="1" parent="1">
          <mxGeometry x="1513" y="1540" width="347" height="60" as="geometry" />
        </mxCell>
        <mxCell id="1r9DKnqt9Mp9a_vY9GGe-226" value="Node.js" style="outlineConnect=0;dashed=0;verticalLabelPosition=bottom;verticalAlign=top;align=center;html=1;shape=mxgraph.aws3.android;fillColor=#8CC64F;gradientColor=none;fontSize=36;strokeColor=#FF0000;" vertex="1" parent="1">
          <mxGeometry x="1260" y="1424" width="262" height="252" as="geometry" />
        </mxCell>
        <mxCell id="1r9DKnqt9Mp9a_vY9GGe-227" value="" style="shape=image;verticalLabelPosition=bottom;labelBackgroundColor=#ffffff;verticalAlign=top;aspect=fixed;imageAspect=0;image=https://1.cms.s81c.com/sites/default/files/2021-01-21/mobile-app-serverless.png;" vertex="1" parent="1">
          <mxGeometry x="-413" y="1270" width="1181.02" height="670" as="geometry" />
        </mxCell>
        <mxCell id="1r9DKnqt9Mp9a_vY9GGe-232" value="" style="shape=doubleArrow;whiteSpace=wrap;html=1;fontSize=36;strokeColor=#FF0000;rotation=-180;" vertex="1" parent="1">
          <mxGeometry x="1070" y="1535" width="136.5" height="60" as="geometry" />
        </mxCell>
        <mxCell id="1r9DKnqt9Mp9a_vY9GGe-233" value="&lt;font style=&quot;font-size: 36px&quot;&gt;User Mobile service&lt;/font&gt;" style="verticalLabelPosition=bottom;html=1;verticalAlign=top;align=center;strokeColor=none;fillColor=#00BEF2;shape=mxgraph.azure.mobile_services;pointerEvents=1;fontSize=18;" vertex="1" parent="1">
          <mxGeometry x="930" y="1480" width="98" height="170" as="geometry" />
        </mxCell>
        <mxCell id="1r9DKnqt9Mp9a_vY9GGe-234" value="&lt;div&gt;&lt;font style=&quot;font-size: 24px&quot;&gt;&lt;b&gt;Java Database &lt;/b&gt;&lt;/font&gt;&lt;font style=&quot;font-size: 24px&quot;&gt;&lt;b&gt;&lt;br&gt;&lt;/b&gt;&lt;/font&gt;&lt;/div&gt;&lt;div&gt;&lt;font style=&quot;font-size: 24px&quot;&gt;&lt;b&gt;Connectivity (JDBC)&lt;/b&gt;&lt;/font&gt;&lt;/div&gt;" style="text;html=1;resizable=0;autosize=1;align=center;verticalAlign=middle;points=[];fillColor=none;strokeColor=none;rounded=0;fontSize=18;" vertex="1" parent="1">
          <mxGeometry x="1575" y="1500" width="250" height="50" as="geometry" />
        </mxCell>
        <mxCell id="1r9DKnqt9Mp9a_vY9GGe-238" value="Data" style="swimlane;fontStyle=0;childLayout=stackLayout;horizontal=1;startSize=30;horizontalStack=0;resizeParent=1;resizeParentMax=0;resizeLast=0;collapsible=1;marginBottom=0;fontSize=24;strokeColor=#FF0000;" vertex="1" parent="1">
          <mxGeometry x="1010" y="1340" width="140" height="120" as="geometry" />
        </mxCell>
        <mxCell id="1r9DKnqt9Mp9a_vY9GGe-239" value="Profile" style="text;strokeColor=none;fillColor=none;align=left;verticalAlign=middle;spacingLeft=4;spacingRight=4;overflow=hidden;points=[[0,0.5],[1,0.5]];portConstraint=eastwest;rotatable=0;fontSize=24;" vertex="1" parent="1r9DKnqt9Mp9a_vY9GGe-238">
          <mxGeometry y="30" width="140" height="30" as="geometry" />
        </mxCell>
        <mxCell id="1r9DKnqt9Mp9a_vY9GGe-240" value="Schedule" style="text;strokeColor=none;fillColor=none;align=left;verticalAlign=middle;spacingLeft=4;spacingRight=4;overflow=hidden;points=[[0,0.5],[1,0.5]];portConstraint=eastwest;rotatable=0;fontSize=24;" vertex="1" parent="1r9DKnqt9Mp9a_vY9GGe-238">
          <mxGeometry y="60" width="140" height="30" as="geometry" />
        </mxCell>
        <mxCell id="1r9DKnqt9Mp9a_vY9GGe-241" value="Noticeboard" style="text;strokeColor=none;fillColor=none;align=left;verticalAlign=middle;spacingLeft=4;spacingRight=4;overflow=hidden;points=[[0,0.5],[1,0.5]];portConstraint=eastwest;rotatable=0;fontSize=24;" vertex="1" parent="1r9DKnqt9Mp9a_vY9GGe-238">
          <mxGeometry y="90" width="140" height="30" as="geometry" />
        </mxCell>
      </root>
    </mxGraphModel>
  </diagram>
</mxfile>
